<svg width="128" height="128" viewBox="0 0 128 128" fill="none" xmlns="http://www.w3.org/2000/svg">
<path d="M102 28L84.7893 51.176L113.466 54.4929L102 28ZM25 100.5L25.8662 102.845C53.875 92.4996 66.0695 79.8459 69.2146 68.9429C72.3344 58.1276 66.1988 48.8394 58.1041 48.5022L58 51L57.8959 53.4978C61.8012 53.6606 66.9156 58.8724 64.4104 67.5571C61.9305 76.1541 51.625 88.0004 24.1338 98.1549L25 100.5ZM58 51L58.1041 48.5022C53.6971 48.3185 50.0978 48.9978 47.3531 50.5799C44.5364 52.2035 42.8309 54.6589 42.0807 57.54C40.647 63.0461 42.7195 69.9352 46.0447 76.162C49.4368 82.5139 54.4482 88.7742 59.7715 93.2246C62.4351 95.4515 65.2481 97.2852 68.0458 98.4294C70.8313 99.5687 73.7739 100.092 76.5726 99.4335L76 97L75.4274 94.5665C73.9761 94.9079 72.1374 94.7008 69.9386 93.8015C67.7519 92.9072 65.3774 91.3942 62.9785 89.3886C58.1768 85.3742 53.5632 79.6267 50.4553 73.8067C47.2805 67.8617 45.978 62.4149 46.9193 58.7999C47.3566 57.1204 48.2761 55.819 49.85 54.9118C51.4959 53.9631 54.0529 53.3377 57.8959 53.4978L58 51ZM76 97L76.5726 99.4335C80.0781 98.6087 83.0814 96.0804 85.6155 92.9014C88.179 89.6855 90.4794 85.5316 92.5146 80.9618C96.589 71.813 99.771 60.6069 101.859 50.8736L99.415 50.3491L96.9706 49.8247C94.923 59.3681 91.8299 70.2092 87.9471 78.9276C86.0037 83.2913 83.9048 87.026 81.7057 89.7848C79.4771 92.5805 77.3543 94.1131 75.4274 94.5665L76 97Z" fill="white"/>
</svg>
